<svg width="24" height="24" viewBox="0 0 24 24" fill="none" xmlns="http://www.w3.org/2000/svg">
<path d="M12.0117 0.751953C5.79853 0.751953 0.761719 5.78872 0.761719 12.002C0.761719 18.2152 5.79853 23.252 12.0117 23.252C18.2249 23.252 23.2617 18.2151 23.2617 12.002C23.2617 5.78877 18.225 0.751953 12.0117 0.751953V0.751953ZM18.906 18.8962C17.1964 20.6006 14.9136 21.6075 12.5022 21.7206C10.0908 21.8337 7.72373 21.045 5.8621 19.5082C4.00048 17.9714 2.7777 15.7965 2.43204 13.4074C2.08638 11.0182 2.64259 8.58596 3.99229 6.58452C5.34199 4.58307 7.3885 3.15582 9.73305 2.58086C12.0776 2.00591 14.5522 2.32443 16.6748 3.47437C18.7973 4.62432 20.4156 6.5233 21.2145 8.8013C22.0134 11.0793 21.9355 13.5731 20.9961 15.7969C20.5065 16.9555 19.7967 18.0081 18.906 18.8962V18.8962Z" fill="white"/>
<path d="M11.2329 7.73374L14.751 11.2519H6.00635V12.7519H14.751L11.2329 16.27L12.2936 17.3307L17.6223 12.0019L12.2936 6.6731L11.2329 7.73374Z" fill="white"/>
</svg>
